<svg width="1440" height="1024" viewBox="0 0 1440 1024" fill="none" xmlns="http://www.w3.org/2000/svg">
<g clip-path="url(#clip0_112_389)">
<rect width="1440" height="1024" fill="#F7FCFF"/>
<g filter="url(#filter0_f_112_389)">
<path fill-rule="evenodd" clip-rule="evenodd" d="M1197.1 -116.441C1280.48 -109.048 1309.98 -6.08001 1370.82 51.4255C1435.21 112.295 1545.66 137.468 1558.45 225.148C1571.76 316.371 1505.77 405.468 1430.15 458.207C1363.7 504.561 1275.55 497.458 1197.1 477.191C1137.06 461.682 1101.25 408.57 1059.73 362.513C1021.65 320.268 981.238 280.881 969.9 225.148C955.501 154.364 949.569 77.7706 989.572 17.6255C1036.98 -53.6594 1111.82 -124.001 1197.1 -116.441Z" fill="url(#paint0_linear_112_389)"/>
</g>
<g filter="url(#filter1_f_112_389)">
<path fill-rule="evenodd" clip-rule="evenodd" d="M639.935 326.144C810.822 331.766 872.391 531.08 921.132 694.796C964.564 840.676 994.563 1014.74 871.765 1104.83C747.767 1195.79 583.824 1124.66 460.62 1032.62C344.029 945.528 259.518 815.177 295.299 674.205C339.687 499.321 459.43 320.205 639.935 326.144Z" fill="url(#paint1_linear_112_389)"/>
</g>
<g filter="url(#filter2_f_112_389)">
<path fill-rule="evenodd" clip-rule="evenodd" d="M429.145 -37.403C482.031 -44.7088 532.673 -72.5263 584.483 -59.6393C645.535 -44.4532 723.497 -20.6508 740.267 39.985C757.737 103.15 658.548 149.83 660.535 215.337C663.26 305.173 809.433 392.739 753.091 462.766C697.86 531.413 586.113 411.755 498.17 417.141C439.075 420.76 391.903 515.244 339.282 488.111C282.129 458.641 320.724 360.471 284.816 307.128C255.892 264.16 189.715 262.836 159.376 220.855C116.635 161.712 42.2202 85.2097 78.8189 22.0814C117.101 -43.9511 223.889 -7.44421 299.14 -20.2216C343.126 -27.6902 384.949 -31.2977 429.145 -37.403Z" fill="url(#paint2_linear_112_389)"/>
</g>
<g filter="url(#filter3_f_112_389)">
<path fill-rule="evenodd" clip-rule="evenodd" d="M1375.08 341.403C1440.29 345.653 1516 251.068 1562.05 297.461C1613.5 349.302 1539.14 438.553 1543.89 511.472C1546.42 550.175 1569.26 582.277 1582.99 618.547C1612.13 695.516 1699.73 767.599 1669.89 844.297C1643.84 911.251 1537.22 886.58 1469.46 910.327C1396.96 935.739 1332.96 1004.18 1257.69 988.764C1182.23 973.306 1128.92 901.446 1093.05 833.223C1061.07 772.398 1043.08 695.559 1070.35 632.48C1096.4 572.247 1210.14 584.536 1227.91 521.361C1251.47 437.66 1116.76 339.313 1171.79 272.022C1218.07 215.424 1302.16 336.649 1375.08 341.403Z" fill="url(#paint3_linear_112_389)"/>
</g>
<g filter="url(#filter4_f_112_389)">
<path fill-rule="evenodd" clip-rule="evenodd" d="M882.33 -159.602C946.896 -175.279 1008.21 -110.909 1049.72 -59.0465C1085.78 -13.9814 1083.34 47.9895 1093.87 104.731C1101.85 147.815 1101.35 189.388 1103.9 233.132C1107.19 289.647 1124.28 344.331 1111.04 399.373C1090.93 482.951 1078.71 580.83 1008.34 630.245C936.022 681.027 829.543 690.814 749.579 653.185C670.604 616.021 655.748 512.346 605.78 440.808C562.265 378.508 482.353 335.459 474.842 259.85C467.361 184.533 510.641 107.416 567.722 57.6819C618.489 13.4486 704.742 49.5311 760.149 11.264C818.963 -29.3557 812.862 -142.734 882.33 -159.602Z" fill="url(#paint4_linear_112_389)" fill-opacity="0.9"/>
</g>
<g filter="url(#filter5_f_112_389)">
<path fill-rule="evenodd" clip-rule="evenodd" d="M92.8251 -89.3386C184.2 -30.3763 93.1895 154.759 181.824 217.769C263.586 275.894 389.354 128.829 474.444 181.955C541.825 224.025 543.776 350.344 496.841 414.451C444.53 485.899 324.99 447.007 248.169 491.011C206.809 514.702 198.669 569.9 165.568 604.207C102.915 669.144 42.5259 832.301 -31.8797 781.269C-120.063 720.787 -22.5717 573.151 -34.6721 466.868C-38.3709 434.38 -68.5368 412.281 -77.4702 380.829C-87.5676 345.278 -85.2014 309.574 -89.7651 272.899C-100.41 187.355 -160.967 98.5772 -122.17 21.6083C-85.1085 -51.9174 23.6593 -133.97 92.8251 -89.3386Z" fill="url(#paint5_linear_112_389)"/>
</g>
<g filter="url(#filter6_f_112_389)">
<path fill-rule="evenodd" clip-rule="evenodd" d="M312.005 433.156C392.843 421.851 472.911 495.457 510.542 567.945C545.707 635.684 470.337 720.95 498.281 791.979C523.63 856.412 630.961 859.788 651.387 925.949C672.336 993.807 665.375 1096.32 602.279 1128.83C529.62 1166.27 449.88 1083.3 369.02 1071.44C329.966 1065.72 292.058 1070.88 253.17 1077.64C172.025 1091.76 79.7656 1186.43 17.3998 1132.59C-40.3031 1082.78 75.7115 988.123 62.4654 913.021C48.4407 833.505 -79.5458 785.919 -57.4412 708.263C-36.7159 635.453 85.4964 664.09 146.187 618.897C214.12 568.31 228.144 444.883 312.005 433.156Z" fill="url(#paint6_linear_112_389)" fill-opacity="0.9"/>
</g>
<g filter="url(#filter7_f_112_389)">
<path fill-rule="evenodd" clip-rule="evenodd" d="M1056.82 574.909C1119.57 594.604 1095.97 706.907 1150.14 744.183C1201.29 779.373 1293.38 714.966 1331.55 763.927C1365.93 808.037 1297.65 867.51 1289.42 922.831C1281.25 977.745 1327.22 1051.53 1283.62 1085.91C1236.53 1123.05 1163.76 1042.11 1108.53 1065.49C1040.33 1094.37 1031.55 1209.91 958.731 1223.46C891.753 1235.93 826.55 1179.01 783.845 1125.93C741.763 1073.62 702.709 998.853 728.004 936.666C755.383 869.356 865.746 880.603 907.75 821.308C937.399 779.454 889.793 714.68 916.344 670.795C946.298 621.284 1001.61 557.578 1056.82 574.909Z" fill="url(#paint7_linear_112_389)"/>
</g>
</g>
<defs>
<filter id="filter0_f_112_389" x="751" y="-325" width="1017.17" height="1025.88" filterUnits="userSpaceOnUse" color-interpolation-filters="sRGB">
<feFlood flood-opacity="0" result="BackgroundImageFix"/>
<feBlend mode="normal" in="SourceGraphic" in2="BackgroundImageFix" result="shape"/>
<feGaussianBlur stdDeviation="104" result="effect1_foregroundBlur_112_389"/>
</filter>
<filter id="filter1_f_112_389" x="231" y="270" width="784" height="933" filterUnits="userSpaceOnUse" color-interpolation-filters="sRGB">
<feFlood flood-opacity="0" result="BackgroundImageFix"/>
<feBlend mode="normal" in="SourceGraphic" in2="BackgroundImageFix" result="shape"/>
<feGaussianBlur stdDeviation="28" result="effect1_foregroundBlur_112_389"/>
</filter>
<filter id="filter2_f_112_389" x="13" y="-119" width="809" height="668" filterUnits="userSpaceOnUse" color-interpolation-filters="sRGB">
<feFlood flood-opacity="0" result="BackgroundImageFix"/>
<feBlend mode="normal" in="SourceGraphic" in2="BackgroundImageFix" result="shape"/>
<feGaussianBlur stdDeviation="28" result="effect1_foregroundBlur_112_389"/>
</filter>
<filter id="filter3_f_112_389" x="925" y="125" width="883" height="998" filterUnits="userSpaceOnUse" color-interpolation-filters="sRGB">
<feFlood flood-opacity="0" result="BackgroundImageFix"/>
<feBlend mode="normal" in="SourceGraphic" in2="BackgroundImageFix" result="shape"/>
<feGaussianBlur stdDeviation="66" result="effect1_foregroundBlur_112_389"/>
</filter>
<filter id="filter4_f_112_389" x="302" y="-334" width="986" height="1182" filterUnits="userSpaceOnUse" color-interpolation-filters="sRGB">
<feFlood flood-opacity="0" result="BackgroundImageFix"/>
<feBlend mode="normal" in="SourceGraphic" in2="BackgroundImageFix" result="shape"/>
<feGaussianBlur stdDeviation="86" result="effect1_foregroundBlur_112_389"/>
</filter>
<filter id="filter5_f_112_389" x="-267" y="-234" width="928" height="1157" filterUnits="userSpaceOnUse" color-interpolation-filters="sRGB">
<feFlood flood-opacity="0" result="BackgroundImageFix"/>
<feBlend mode="normal" in="SourceGraphic" in2="BackgroundImageFix" result="shape"/>
<feGaussianBlur stdDeviation="66" result="effect1_foregroundBlur_112_389"/>
</filter>
<filter id="filter6_f_112_389" x="-252" y="240" width="1106" height="1101" filterUnits="userSpaceOnUse" color-interpolation-filters="sRGB">
<feFlood flood-opacity="0" result="BackgroundImageFix"/>
<feBlend mode="normal" in="SourceGraphic" in2="BackgroundImageFix" result="shape"/>
<feGaussianBlur stdDeviation="96" result="effect1_foregroundBlur_112_389"/>
</filter>
<filter id="filter7_f_112_389" x="496" y="348" width="1069.16" height="1101.2" filterUnits="userSpaceOnUse" color-interpolation-filters="sRGB">
<feFlood flood-opacity="0" result="BackgroundImageFix"/>
<feBlend mode="normal" in="SourceGraphic" in2="BackgroundImageFix" result="shape"/>
<feGaussianBlur stdDeviation="112" result="effect1_foregroundBlur_112_389"/>
</filter>
<linearGradient id="paint0_linear_112_389" x1="959" y1="-117" x2="1568.82" y2="484.106" gradientUnits="userSpaceOnUse">
<stop stop-color="#FFF6B7"/>
<stop offset="1" stop-color="#F6416C"/>
</linearGradient>
<linearGradient id="paint1_linear_112_389" x1="287" y1="326" x2="1091.81" y2="984.746" gradientUnits="userSpaceOnUse">
<stop stop-color="#81FFEF"/>
<stop offset="1" stop-color="#F067B4"/>
</linearGradient>
<linearGradient id="paint2_linear_112_389" x1="69" y1="-63" x2="611.095" y2="616.569" gradientUnits="userSpaceOnUse">
<stop stop-color="#ABDCFF"/>
<stop offset="1" stop-color="#0396FF"/>
</linearGradient>
<linearGradient id="paint3_linear_112_389" x1="1057" y1="257" x2="1780.47" y2="867.12" gradientUnits="userSpaceOnUse">
<stop stop-color="#FFA8A8"/>
<stop offset="1" stop-color="#FCFF00"/>
</linearGradient>
<linearGradient id="paint4_linear_112_389" x1="474" y1="-162" x2="1283.11" y2="457.869" gradientUnits="userSpaceOnUse">
<stop stop-color="#F6D242"/>
<stop offset="1" stop-color="#FF52E5"/>
</linearGradient>
<linearGradient id="paint5_linear_112_389" x1="-135" y1="-102" x2="720.184" y2="533.881" gradientUnits="userSpaceOnUse">
<stop stop-color="#3C8CE7"/>
<stop offset="1" stop-color="#00EAFF"/>
</linearGradient>
<linearGradient id="paint6_linear_112_389" x1="-60" y1="432" x2="656.983" y2="1153.98" gradientUnits="userSpaceOnUse">
<stop stop-color="#EE9AE5"/>
<stop offset="1" stop-color="#5961F9"/>
</linearGradient>
<linearGradient id="paint7_linear_112_389" x1="720" y1="572" x2="1372.38" y2="1192.38" gradientUnits="userSpaceOnUse">
<stop stop-color="#FF96F9"/>
<stop offset="1" stop-color="#C32BAC"/>
</linearGradient>
<clipPath id="clip0_112_389">
<rect width="1440" height="1024" fill="white"/>
</clipPath>
</defs>
</svg>
