<svg width="1754" height="1024" viewBox="0 0 1754 1024" fill="none" xmlns="http://www.w3.org/2000/svg">
<g clip-path="url(#clip0_152_305)">
<rect width="1754" height="1024" fill="#F7FCFF"/>
<g filter="url(#filter0_f_152_305)">
<path fill-rule="evenodd" clip-rule="evenodd" d="M1254.16 -326.407C1367.13 -316.391 1407.11 -176.886 1489.53 -98.975C1576.77 -16.5067 1726.41 17.5996 1743.74 136.392C1761.77 259.985 1672.36 380.696 1569.92 452.15C1479.88 514.952 1360.45 505.329 1254.16 477.87C1172.82 456.857 1124.3 384.9 1068.05 322.5C1016.46 265.264 961.707 211.902 946.346 136.392C926.838 40.4911 918.801 -63.2815 972.999 -144.769C1037.24 -241.348 1138.62 -336.65 1254.16 -326.407Z" fill="url(#paint0_linear_152_305)"/>
</g>
<g filter="url(#filter1_f_152_305)">
<path fill-rule="evenodd" clip-rule="evenodd" d="M801.989 326.144C1008.73 331.766 1083.22 531.08 1142.19 694.796C1194.73 840.676 1231.03 1014.74 1082.46 1104.83C932.446 1195.79 734.104 1124.66 585.049 1032.62C443.995 945.528 341.752 815.177 385.041 674.205C438.742 499.321 583.61 320.205 801.989 326.144Z" fill="url(#paint1_linear_152_305)"/>
</g>
<g filter="url(#filter2_f_152_305)">
<path fill-rule="evenodd" clip-rule="evenodd" d="M547.584 -37.403C611.548 -44.7088 672.798 -72.5263 735.46 -59.6393C809.302 -44.4532 903.594 -20.6508 923.877 39.985C945.007 103.15 825.04 149.83 827.444 215.337C830.739 305.173 1007.53 392.739 939.387 462.766C872.586 531.413 737.433 411.755 631.067 417.141C559.595 420.76 502.541 515.244 438.897 488.111C369.773 458.641 416.453 360.471 373.023 307.128C338.04 264.16 258.001 262.836 221.307 220.855C169.613 161.712 79.6107 85.2097 123.876 22.0814C170.177 -43.9511 299.334 -7.44421 390.347 -20.2216C443.547 -27.6902 494.131 -31.2977 547.584 -37.403Z" fill="url(#paint2_linear_152_305)"/>
</g>
<g filter="url(#filter3_f_152_305)">
<path fill-rule="evenodd" clip-rule="evenodd" d="M1495.31 293.898C1583.64 299.656 1686.22 171.509 1748.61 234.365C1818.32 304.601 1717.57 425.522 1724.01 524.315C1727.43 576.752 1758.38 620.245 1776.98 669.385C1816.46 773.666 1935.15 871.327 1894.72 975.241C1859.42 1065.95 1714.97 1032.53 1623.17 1064.7C1524.94 1099.13 1438.23 1191.86 1336.26 1170.97C1234.02 1150.03 1161.8 1052.67 1113.19 960.237C1069.86 877.829 1045.49 773.724 1082.44 688.263C1117.73 606.656 1271.83 623.306 1295.91 537.713C1327.82 424.312 1145.31 291.066 1219.87 199.898C1282.58 123.217 1396.51 287.458 1495.31 293.898Z" fill="url(#paint3_linear_152_305)"/>
</g>
<g filter="url(#filter4_f_152_305)">
<path fill-rule="evenodd" clip-rule="evenodd" d="M1003.18 -268.413C1086.85 -285.325 1166.32 -215.885 1220.1 -159.938C1266.84 -111.324 1263.68 -44.472 1277.31 16.7388C1287.67 63.2162 1287.01 108.063 1290.32 155.252C1294.58 216.218 1316.73 275.209 1299.57 334.586C1273.51 424.747 1257.68 530.334 1166.48 583.641C1072.76 638.423 934.766 648.981 831.136 608.388C728.789 568.298 709.537 456.457 644.781 379.285C588.387 312.078 484.825 265.639 475.092 184.075C465.396 102.826 521.484 19.6352 595.459 -34.0162C661.25 -81.7333 773.03 -42.8089 844.835 -84.09C921.055 -127.909 913.148 -250.217 1003.18 -268.413Z" fill="url(#paint4_linear_152_305)" fill-opacity="0.9"/>
</g>
<g filter="url(#filter5_f_152_305)">
<path fill-rule="evenodd" clip-rule="evenodd" d="M140.517 -89.3386C251.021 -30.3763 140.958 154.759 248.147 217.769C347.025 275.894 499.12 128.829 602.024 181.955C683.51 224.025 685.87 350.344 629.109 414.451C565.848 485.899 421.283 447.007 328.381 491.011C278.363 514.702 268.518 569.9 228.488 604.207C152.719 669.144 79.6887 832.301 -10.2928 781.269C-116.936 720.787 0.963776 573.151 -13.6698 466.868C-18.1428 434.38 -54.6236 412.281 -65.4271 380.829C-77.6382 345.278 -74.7767 309.574 -80.2957 272.899C-93.1687 187.355 -166.403 98.5772 -119.484 21.6083C-74.6643 -51.9174 56.8726 -133.97 140.517 -89.3386Z" fill="url(#paint5_linear_152_305)"/>
</g>
<g filter="url(#filter6_f_152_305)">
<path fill-rule="evenodd" clip-rule="evenodd" d="M405.806 433.156C503.551 421.851 600.365 495.457 645.866 567.945C688.386 635.684 597.252 720.95 631.04 791.979C661.691 856.412 791.469 859.788 816.167 925.949C841.498 993.807 833.08 1096.32 756.789 1128.83C668.934 1166.27 572.517 1083.3 474.746 1071.44C427.523 1065.72 381.688 1070.88 334.667 1077.64C236.551 1091.76 124.996 1186.43 49.5873 1132.59C-20.1836 1082.78 120.094 988.123 104.078 913.021C87.1201 833.505 -67.6336 785.919 -40.906 708.263C-15.8463 635.453 131.926 664.09 205.309 618.897C287.45 568.31 304.407 444.883 405.806 433.156Z" fill="url(#paint6_linear_152_305)" fill-opacity="0.9"/>
</g>
<g filter="url(#filter7_f_152_305)">
<path fill-rule="evenodd" clip-rule="evenodd" d="M1229.51 524.135C1310.83 545.361 1280.24 666.398 1350.45 706.573C1416.73 744.5 1536.07 675.085 1585.54 727.853C1630.11 775.393 1541.62 839.491 1530.95 899.114C1520.35 958.299 1579.93 1037.82 1523.43 1074.88C1462.41 1114.9 1368.1 1027.67 1296.52 1052.87C1208.13 1083.99 1196.76 1208.52 1102.39 1223.13C1015.59 1236.56 931.085 1175.22 875.741 1118C821.204 1061.63 770.592 981.049 803.373 914.025C838.854 841.481 981.881 853.602 1036.32 789.696C1074.74 744.587 1013.04 674.776 1047.45 627.478C1086.27 574.117 1157.96 505.457 1229.51 524.135Z" fill="url(#paint7_linear_152_305)"/>
</g>
</g>
<defs>
<filter id="filter0_f_152_305" x="649.771" y="-608.972" width="1378.1" height="1389.91" filterUnits="userSpaceOnUse" color-interpolation-filters="sRGB">
<feFlood flood-opacity="0" result="BackgroundImageFix"/>
<feBlend mode="normal" in="SourceGraphic" in2="BackgroundImageFix" result="shape"/>
<feGaussianBlur stdDeviation="140.904" result="effect1_foregroundBlur_152_305"/>
</filter>
<filter id="filter1_f_152_305" x="319" y="270" width="925" height="933" filterUnits="userSpaceOnUse" color-interpolation-filters="sRGB">
<feFlood flood-opacity="0" result="BackgroundImageFix"/>
<feBlend mode="normal" in="SourceGraphic" in2="BackgroundImageFix" result="shape"/>
<feGaussianBlur stdDeviation="28" result="effect1_foregroundBlur_152_305"/>
</filter>
<filter id="filter2_f_152_305" x="56" y="-119" width="955" height="668" filterUnits="userSpaceOnUse" color-interpolation-filters="sRGB">
<feFlood flood-opacity="0" result="BackgroundImageFix"/>
<feBlend mode="normal" in="SourceGraphic" in2="BackgroundImageFix" result="shape"/>
<feGaussianBlur stdDeviation="28" result="effect1_foregroundBlur_152_305"/>
</filter>
<filter id="filter3_f_152_305" x="885.512" y="0.706726" width="1196.32" height="1352.13" filterUnits="userSpaceOnUse" color-interpolation-filters="sRGB">
<feFlood flood-opacity="0" result="BackgroundImageFix"/>
<feBlend mode="normal" in="SourceGraphic" in2="BackgroundImageFix" result="shape"/>
<feGaussianBlur stdDeviation="89.4196" result="effect1_foregroundBlur_152_305"/>
</filter>
<filter id="filter4_f_152_305" x="288.544" y="-456.456" width="1202.91" height="1274.91" filterUnits="userSpaceOnUse" color-interpolation-filters="sRGB">
<feFlood flood-opacity="0" result="BackgroundImageFix"/>
<feBlend mode="normal" in="SourceGraphic" in2="BackgroundImageFix" result="shape"/>
<feGaussianBlur stdDeviation="92.728" result="effect1_foregroundBlur_152_305"/>
</filter>
<filter id="filter5_f_152_305" x="-267" y="-234" width="1067" height="1157" filterUnits="userSpaceOnUse" color-interpolation-filters="sRGB">
<feFlood flood-opacity="0" result="BackgroundImageFix"/>
<feBlend mode="normal" in="SourceGraphic" in2="BackgroundImageFix" result="shape"/>
<feGaussianBlur stdDeviation="66" result="effect1_foregroundBlur_152_305"/>
</filter>
<filter id="filter6_f_152_305" x="-236" y="240" width="1257" height="1101" filterUnits="userSpaceOnUse" color-interpolation-filters="sRGB">
<feFlood flood-opacity="0" result="BackgroundImageFix"/>
<feBlend mode="normal" in="SourceGraphic" in2="BackgroundImageFix" result="shape"/>
<feGaussianBlur stdDeviation="96" result="effect1_foregroundBlur_152_305"/>
</filter>
<filter id="filter7_f_152_305" x="551.476" y="279.476" width="1288.05" height="1187.05" filterUnits="userSpaceOnUse" color-interpolation-filters="sRGB">
<feFlood flood-opacity="0" result="BackgroundImageFix"/>
<feBlend mode="normal" in="SourceGraphic" in2="BackgroundImageFix" result="shape"/>
<feGaussianBlur stdDeviation="120.762" result="effect1_foregroundBlur_152_305"/>
</filter>
<linearGradient id="paint0_linear_152_305" x1="931.578" y1="-327.165" x2="1757.79" y2="487.239" gradientUnits="userSpaceOnUse">
<stop stop-color="#FFF6B7"/>
<stop offset="1" stop-color="#F6416C"/>
</linearGradient>
<linearGradient id="paint1_linear_152_305" x1="375" y1="326" x2="1195.96" y2="1138.96" gradientUnits="userSpaceOnUse">
<stop stop-color="#81FFEF"/>
<stop offset="1" stop-color="#F067B4"/>
</linearGradient>
<linearGradient id="paint2_linear_152_305" x1="112" y1="-63" x2="623.091" y2="711.91" gradientUnits="userSpaceOnUse">
<stop stop-color="#ABDCFF"/>
<stop offset="1" stop-color="#0396FF"/>
</linearGradient>
<linearGradient id="paint3_linear_152_305" x1="1064.35" y1="179.546" x2="2044.54" y2="1006.16" gradientUnits="userSpaceOnUse">
<stop stop-color="#FFA8A8"/>
<stop offset="1" stop-color="#FCFF00"/>
</linearGradient>
<linearGradient id="paint4_linear_152_305" x1="474" y1="-271" x2="1374.9" y2="558.143" gradientUnits="userSpaceOnUse">
<stop stop-color="#F6D242"/>
<stop offset="1" stop-color="#FF52E5"/>
</linearGradient>
<linearGradient id="paint5_linear_152_305" x1="-135" y1="-102" x2="752.985" y2="696.49" gradientUnits="userSpaceOnUse">
<stop stop-color="#3C8CE7"/>
<stop offset="1" stop-color="#00EAFF"/>
</linearGradient>
<linearGradient id="paint6_linear_152_305" x1="-44" y1="432" x2="659.328" y2="1288.35" gradientUnits="userSpaceOnUse">
<stop stop-color="#EE9AE5"/>
<stop offset="1" stop-color="#5961F9"/>
</linearGradient>
<linearGradient id="paint7_linear_152_305" x1="793" y1="521" x2="1490.72" y2="1318.82" gradientUnits="userSpaceOnUse">
<stop stop-color="#FF96F9"/>
<stop offset="1" stop-color="#C32BAC"/>
</linearGradient>
<clipPath id="clip0_152_305">
<rect width="1754" height="1024" fill="white"/>
</clipPath>
</defs>
</svg>
