<svg width="611" height="859" viewBox="0 0 611 859" fill="none" xmlns="http://www.w3.org/2000/svg">
<g clip-path="url(#clip0_113_399)">
<rect width="858" height="610.133" transform="translate(0.636719 858.42) rotate(-90)" fill="#F7FCFF"/>
<g filter="url(#filter0_f_113_399)">
<path fill-rule="evenodd" clip-rule="evenodd" d="M-68.7428 145.151C-64.3381 95.468 -2.98634 77.8876 31.2774 41.6412C67.5453 3.27459 82.5446 -62.5361 134.787 -70.1565C189.141 -78.0848 242.228 -38.7653 273.651 6.28705C301.271 45.8852 297.039 98.4069 284.963 145.151C275.722 180.923 244.076 202.261 216.634 226.998C191.463 249.687 167.995 273.766 134.787 280.521C92.6118 289.101 46.9747 292.635 11.1382 268.8C-31.3357 240.55 -73.2476 195.962 -68.7428 145.151Z" fill="url(#paint0_linear_113_399)"/>
</g>
<g filter="url(#filter1_f_113_399)">
<path fill-rule="evenodd" clip-rule="evenodd" d="M194.965 477.125C198.315 375.305 317.072 338.621 414.62 309.579C501.54 283.701 605.255 265.826 658.93 338.994C713.129 412.876 670.745 510.559 615.908 583.968C564.014 653.436 486.347 703.791 402.351 682.471C298.149 656.023 191.426 584.676 194.965 477.125Z" fill="url(#paint1_linear_113_399)"/>
</g>
<g filter="url(#filter2_f_113_399)">
<path fill-rule="evenodd" clip-rule="evenodd" d="M-21.6488 602.722C-26.0019 571.21 -42.5765 541.036 -34.898 510.166C-25.8496 473.789 -11.6673 427.337 24.4615 417.345C62.0973 406.935 89.911 466.036 128.942 464.852C182.47 463.228 234.644 376.134 276.368 409.704C317.271 442.613 245.974 509.195 249.184 561.595C251.34 596.805 307.637 624.912 291.47 656.265C273.911 690.319 215.418 667.322 183.634 688.718C158.032 705.952 157.244 745.382 132.23 763.459C96.9904 788.926 51.4079 833.264 13.7939 811.458C-25.5504 788.648 -3.7984 725.02 -11.4116 680.183C-15.8617 653.975 -18.0111 629.055 -21.6488 602.722Z" fill="url(#paint2_linear_113_399)"/>
</g>
<g filter="url(#filter3_f_113_399)">
<path fill-rule="evenodd" clip-rule="evenodd" d="M204.055 39.0996C206.588 0.250511 150.231 -44.8611 177.874 -72.2989C208.762 -102.958 261.941 -58.6479 305.388 -61.4815C328.449 -62.9855 347.577 -76.5951 369.187 -84.7762C415.048 -102.138 457.997 -154.335 503.697 -136.555C543.59 -121.033 528.89 -57.5046 543.039 -17.134C558.181 26.0679 598.961 64.1995 589.775 109.044C580.564 154.008 537.748 185.77 497.098 207.145C460.857 226.201 415.074 236.921 377.489 220.668C341.6 205.148 348.923 137.382 311.281 126.789C261.409 112.755 202.81 193.02 162.716 160.231C128.993 132.652 201.223 82.5493 204.055 39.0996Z" fill="url(#paint3_linear_113_399)"/>
</g>
<g filter="url(#filter4_f_113_399)">
<path fill-rule="evenodd" clip-rule="evenodd" d="M-94.4598 332.699C-103.801 294.229 -65.4468 257.693 -34.5456 232.964C-7.69424 211.476 29.2301 212.928 63.0387 206.659C88.7097 201.899 113.48 202.201 139.544 200.682C173.218 198.719 205.8 188.536 238.596 196.427C288.395 208.41 346.714 215.686 376.157 257.617C406.415 300.708 412.247 364.151 389.826 411.797C367.682 458.852 305.909 467.704 263.284 497.477C226.164 523.404 200.514 571.018 155.464 575.494C110.587 579.952 64.6385 554.164 35.0051 520.153C8.64945 489.904 30.1486 438.512 7.34777 405.498C-16.8548 370.455 -84.4095 374.09 -94.4598 332.699Z" fill="url(#paint4_linear_113_399)" fill-opacity="0.9"/>
</g>
<g filter="url(#filter5_f_113_399)">
<path fill-rule="evenodd" clip-rule="evenodd" d="M-52.5946 803.112C-17.4629 748.668 92.8466 802.895 130.39 750.083C165.023 701.367 77.3968 626.431 109.051 575.731C134.118 535.583 209.383 534.42 247.58 562.386C290.151 593.554 266.978 664.781 293.197 710.553C307.313 735.197 340.202 740.047 360.643 759.769C399.335 797.1 496.549 833.082 466.142 877.415C430.105 929.958 342.139 871.869 278.812 879.079C259.455 881.283 246.287 899.257 227.547 904.58C206.365 910.596 185.091 909.186 163.238 911.905C112.269 918.248 59.3719 954.33 13.5113 931.213C-30.2978 909.131 -79.1874 844.323 -52.5946 803.112Z" fill="url(#paint5_linear_113_399)"/>
</g>
<g filter="url(#filter6_f_113_399)">
<path fill-rule="evenodd" clip-rule="evenodd" d="M258.726 672.518C251.99 624.352 295.847 576.644 339.038 554.223C379.399 533.27 430.203 578.178 472.525 561.528C510.916 546.424 512.927 482.473 552.348 470.303C592.78 457.82 653.863 461.968 673.235 499.563C695.542 542.855 646.102 590.367 639.038 638.546C635.626 661.816 638.704 684.402 642.733 707.573C651.142 755.922 707.55 810.893 675.473 848.053C645.793 882.434 589.394 813.309 544.646 821.201C497.267 829.558 468.914 905.816 422.644 892.646C379.261 880.297 396.324 807.479 369.396 771.317C339.255 730.84 265.713 722.484 258.726 672.518Z" fill="url(#paint6_linear_113_399)" fill-opacity="0.9"/>
</g>
<g filter="url(#filter7_f_113_399)">
<path fill-rule="evenodd" clip-rule="evenodd" d="M343.186 228.729C354.921 191.344 421.835 205.408 444.045 173.127C465.013 142.653 426.637 87.7843 455.81 65.0408C482.092 44.551 517.528 85.2351 550.49 90.1409C583.209 95.0107 627.174 67.6202 647.658 93.5943C669.787 121.653 621.559 165.013 635.491 197.919C652.698 238.56 721.541 243.789 729.617 287.176C737.046 327.084 703.13 365.934 671.501 391.379C640.333 416.453 595.787 439.723 558.733 424.651C518.628 408.338 525.329 342.58 489.999 317.553C465.061 299.887 426.467 328.252 400.319 312.432C370.818 294.584 332.86 261.626 343.186 228.729Z" fill="url(#paint7_linear_113_399)"/>
</g>
</g>
<defs>
<filter id="filter0_f_113_399" x="-193.01" y="-195.114" width="611.255" height="606.063" filterUnits="userSpaceOnUse" color-interpolation-filters="sRGB">
<feFlood flood-opacity="0" result="BackgroundImageFix"/>
<feBlend mode="normal" in="SourceGraphic" in2="BackgroundImageFix" result="shape"/>
<feGaussianBlur stdDeviation="61.9667" result="effect1_foregroundBlur_113_399"/>
</filter>
<filter id="filter1_f_113_399" x="161.512" y="253.649" width="555.913" height="467.133" filterUnits="userSpaceOnUse" color-interpolation-filters="sRGB">
<feFlood flood-opacity="0" result="BackgroundImageFix"/>
<feBlend mode="normal" in="SourceGraphic" in2="BackgroundImageFix" result="shape"/>
<feGaussianBlur stdDeviation="16.6833" result="effect1_foregroundBlur_113_399"/>
</filter>
<filter id="filter2_f_113_399" x="-70.2671" y="368.646" width="398.017" height="482.029" filterUnits="userSpaceOnUse" color-interpolation-filters="sRGB">
<feFlood flood-opacity="0" result="BackgroundImageFix"/>
<feBlend mode="normal" in="SourceGraphic" in2="BackgroundImageFix" result="shape"/>
<feGaussianBlur stdDeviation="16.6833" result="effect1_foregroundBlur_113_399"/>
</filter>
<filter id="filter3_f_113_399" x="75.1156" y="-218.846" width="594.642" height="526.121" filterUnits="userSpaceOnUse" color-interpolation-filters="sRGB">
<feFlood flood-opacity="0" result="BackgroundImageFix"/>
<feBlend mode="normal" in="SourceGraphic" in2="BackgroundImageFix" result="shape"/>
<feGaussianBlur stdDeviation="39.325" result="effect1_foregroundBlur_113_399"/>
</filter>
<filter id="filter4_f_113_399" x="-198.372" y="90.9874" width="704.275" height="587.492" filterUnits="userSpaceOnUse" color-interpolation-filters="sRGB">
<feFlood flood-opacity="0" result="BackgroundImageFix"/>
<feBlend mode="normal" in="SourceGraphic" in2="BackgroundImageFix" result="shape"/>
<feGaussianBlur stdDeviation="51.2417" result="effect1_foregroundBlur_113_399"/>
</filter>
<filter id="filter5_f_113_399" x="-138.789" y="464.575" width="689.38" height="552.933" filterUnits="userSpaceOnUse" color-interpolation-filters="sRGB">
<feFlood flood-opacity="0" result="BackgroundImageFix"/>
<feBlend mode="normal" in="SourceGraphic" in2="BackgroundImageFix" result="shape"/>
<feGaussianBlur stdDeviation="39.325" result="effect1_foregroundBlur_113_399"/>
</filter>
<filter id="filter6_f_113_399" x="143.637" y="349.579" width="656.013" height="658.992" filterUnits="userSpaceOnUse" color-interpolation-filters="sRGB">
<feFlood flood-opacity="0" result="BackgroundImageFix"/>
<feBlend mode="normal" in="SourceGraphic" in2="BackgroundImageFix" result="shape"/>
<feGaussianBlur stdDeviation="57.2" result="effect1_foregroundBlur_113_399"/>
</filter>
<filter id="filter7_f_113_399" x="207.986" y="-74.1547" width="656.133" height="637.042" filterUnits="userSpaceOnUse" color-interpolation-filters="sRGB">
<feFlood flood-opacity="0" result="BackgroundImageFix"/>
<feBlend mode="normal" in="SourceGraphic" in2="BackgroundImageFix" result="shape"/>
<feGaussianBlur stdDeviation="66.7333" result="effect1_foregroundBlur_113_399"/>
</filter>
<linearGradient id="paint0_linear_113_399" x1="-69.0762" y1="287.016" x2="289.083" y2="-76.3357" gradientUnits="userSpaceOnUse">
<stop stop-color="#FFF6B7"/>
<stop offset="1" stop-color="#F6416C"/>
</linearGradient>
<linearGradient id="paint1_linear_113_399" x1="194.879" y1="687.416" x2="587.382" y2="207.885" gradientUnits="userSpaceOnUse">
<stop stop-color="#81FFEF"/>
<stop offset="1" stop-color="#F067B4"/>
</linearGradient>
<linearGradient id="paint2_linear_113_399" x1="-36.9004" y1="817.308" x2="368.009" y2="494.31" gradientUnits="userSpaceOnUse">
<stop stop-color="#ABDCFF"/>
<stop offset="1" stop-color="#0396FF"/>
</linearGradient>
<linearGradient id="paint3_linear_113_399" x1="153.766" y1="228.625" x2="517.296" y2="-202.443" gradientUnits="userSpaceOnUse">
<stop stop-color="#FFA8A8"/>
<stop offset="1" stop-color="#FCFF00"/>
</linearGradient>
<linearGradient id="paint4_linear_113_399" x1="-95.8887" y1="575.996" x2="273.45" y2="93.8995" gradientUnits="userSpaceOnUse">
<stop stop-color="#F6D242"/>
<stop offset="1" stop-color="#FF52E5"/>
</linearGradient>
<linearGradient id="paint5_linear_113_399" x1="-60.1387" y1="938.858" x2="318.741" y2="429.311" gradientUnits="userSpaceOnUse">
<stop stop-color="#3C8CE7"/>
<stop offset="1" stop-color="#00EAFF"/>
</linearGradient>
<linearGradient id="paint6_linear_113_399" x1="258.037" y1="894.17" x2="688.218" y2="466.968" gradientUnits="userSpaceOnUse">
<stop stop-color="#EE9AE5"/>
<stop offset="1" stop-color="#5961F9"/>
</linearGradient>
<linearGradient id="paint7_linear_113_399" x1="341.453" y1="429.42" x2="711.094" y2="40.7128" gradientUnits="userSpaceOnUse">
<stop stop-color="#FF96F9"/>
<stop offset="1" stop-color="#C32BAC"/>
</linearGradient>
<clipPath id="clip0_113_399">
<rect width="858" height="610.133" fill="white" transform="translate(0.636719 858.42) rotate(-90)"/>
</clipPath>
</defs>
</svg>
