<svg width="48" height="48" viewBox="0 0 48 48" fill="none" xmlns="http://www.w3.org/2000/svg">
<g clip-path="url(#clip0_21_4162)">
<path d="M0.0273438 16.1C0.0273438 10.4051 0.0273438 7.55764 1.15321 5.39026C2.10196 3.56382 3.59117 2.07462 5.4176 1.12587C7.58498 0 10.4324 0 16.1273 0H31.9273C37.6223 0 40.4697 0 42.6371 1.12587C44.4635 2.07462 45.9527 3.56382 46.9015 5.39026C48.0273 7.55764 48.0273 10.4051 48.0273 16.1V31.9C48.0273 37.5949 48.0273 40.4424 46.9015 42.6097C45.9527 44.4362 44.4635 45.9254 42.6371 46.8741C40.4697 48 37.6223 48 31.9273 48H16.1273C10.4324 48 7.58498 48 5.4176 46.8741C3.59117 45.9254 2.10196 44.4362 1.15321 42.6097C0.0273438 40.4424 0.0273438 37.5949 0.0273438 31.9V16.1Z" fill="url(#paint0_radial_21_4162)"/>
<path d="M0.0273438 16.1C0.0273438 10.4051 0.0273438 7.55764 1.15321 5.39026C2.10196 3.56382 3.59117 2.07462 5.4176 1.12587C7.58498 0 10.4324 0 16.1273 0H31.9273C37.6223 0 40.4697 0 42.6371 1.12587C44.4635 2.07462 45.9527 3.56382 46.9015 5.39026C48.0273 7.55764 48.0273 10.4051 48.0273 16.1V31.9C48.0273 37.5949 48.0273 40.4424 46.9015 42.6097C45.9527 44.4362 44.4635 45.9254 42.6371 46.8741C40.4697 48 37.6223 48 31.9273 48H16.1273C10.4324 48 7.58498 48 5.4176 46.8741C3.59117 45.9254 2.10196 44.4362 1.15321 42.6097C0.0273438 40.4424 0.0273438 37.5949 0.0273438 31.9V16.1Z" fill="url(#paint1_radial_21_4162)"/>
<path d="M24.0008 6.54541C19.2605 6.54541 18.6656 6.56614 16.8039 6.65087C14.9458 6.73596 13.6774 7.03014 12.5677 7.46177C11.4197 7.90759 10.4459 8.50396 9.47574 9.4745C8.50487 10.4447 7.90852 11.4185 7.46126 12.5661C7.02855 13.6763 6.73401 14.945 6.65038 16.8025C6.56711 18.6643 6.54529 19.2596 6.54529 24C6.54529 28.7403 6.56638 29.3334 6.65074 31.1952C6.73619 33.0534 7.03036 34.3218 7.46162 35.4316C7.90779 36.5796 8.50414 37.5534 9.47465 38.5236C10.4444 39.4945 11.4182 40.0923 12.5655 40.5381C13.676 40.9698 14.9447 41.264 16.8024 41.349C18.6642 41.4338 19.2587 41.4545 23.9986 41.4545C28.7392 41.4545 29.3322 41.4338 31.194 41.349C33.0521 41.264 34.3219 40.9698 35.4324 40.5381C36.58 40.0923 37.5523 39.4945 38.5221 38.5236C39.493 37.5534 40.0894 36.5796 40.5366 35.432C40.9657 34.3218 41.2602 33.053 41.3475 31.1956C41.4311 29.3338 41.453 28.7403 41.453 24C41.453 19.2596 41.4311 18.6647 41.3475 16.8029C41.2602 14.9447 40.9657 13.6763 40.5366 12.5665C40.0894 11.4185 39.493 10.4447 38.5221 9.4745C37.5513 8.50359 36.5804 7.90723 35.4313 7.46177C34.3186 7.03014 33.0496 6.73596 31.1915 6.65087C29.3297 6.56614 28.737 6.54541 23.9953 6.54541H24.0008ZM22.435 9.69086C22.8997 9.69014 23.4182 9.69086 24.0008 9.69086C28.661 9.69086 29.2133 9.70759 31.0536 9.79123C32.7554 9.86905 33.679 10.1534 34.2943 10.3923C35.1088 10.7087 35.6895 11.0869 36.3 11.6978C36.9109 12.3087 37.2891 12.8905 37.6062 13.705C37.8451 14.3196 38.1298 15.2432 38.2072 16.945C38.2909 18.785 38.3091 19.3378 38.3091 23.996C38.3091 28.6541 38.2909 29.2069 38.2072 31.0469C38.1294 32.7487 37.8451 33.6723 37.6062 34.2869C37.2898 35.1014 36.9109 35.6814 36.3 36.292C35.6891 36.9029 35.1091 37.281 34.2943 37.5974C33.6797 37.8374 32.7554 38.121 31.0536 38.1989C29.2137 38.2825 28.661 38.3007 24.0008 38.3007C19.3402 38.3007 18.7878 38.2825 16.9479 38.1989C15.2461 38.1203 14.3225 37.836 13.7069 37.597C12.8924 37.2807 12.3106 36.9025 11.6997 36.2916C11.0888 35.6807 10.7106 35.1003 10.3935 34.2854C10.1546 33.6709 9.86991 32.7472 9.79246 31.0454C9.70883 29.2054 9.6921 28.6527 9.6921 23.9916C9.6921 19.3305 9.70883 18.7807 9.79246 16.9407C9.87028 15.2389 10.1546 14.3152 10.3935 13.7C10.7099 12.8854 11.0888 12.3036 11.6997 11.6927C12.3106 11.0818 12.8924 10.7036 13.7069 10.3865C14.3221 10.1465 15.2461 9.86286 16.9479 9.78468C18.558 9.71196 19.182 9.69014 22.435 9.6865V9.69086ZM33.3176 12.589C32.1612 12.589 31.2231 13.5261 31.2231 14.6829C31.2231 15.8392 32.1612 16.7774 33.3176 16.7774C34.4739 16.7774 35.4121 15.8392 35.4121 14.6829C35.4121 13.5265 34.4739 12.5883 33.3176 12.5883V12.589ZM24.0008 15.0363C19.0507 15.0363 15.0374 19.0498 15.0374 24C15.0374 28.9501 19.0507 32.9618 24.0008 32.9618C28.9508 32.9618 32.9627 28.9501 32.9627 24C32.9627 19.0498 28.9504 15.0363 24.0004 15.0363H24.0008ZM24.0008 18.1818C27.2138 18.1818 29.8188 20.7865 29.8188 24C29.8188 27.213 27.2138 29.8181 24.0008 29.8181C20.7874 29.8181 18.1828 27.213 18.1828 24C18.1828 20.7865 20.7874 18.1818 24.0008 18.1818V18.1818Z" fill="white"/>
</g>
<defs>
<radialGradient id="paint0_radial_21_4162" cx="0" cy="0" r="1" gradientUnits="userSpaceOnUse" gradientTransform="translate(12.7774 51.697) rotate(-90) scale(47.5715 44.2453)">
<stop stop-color="#FFDD55"/>
<stop offset="0.1" stop-color="#FFDD55"/>
<stop offset="0.5" stop-color="#FF543E"/>
<stop offset="1" stop-color="#C837AB"/>
</radialGradient>
<radialGradient id="paint1_radial_21_4162" cx="0" cy="0" r="1" gradientUnits="userSpaceOnUse" gradientTransform="translate(-8.01291 3.45784) rotate(78.6806) scale(21.2647 87.6539)">
<stop stop-color="#3771C8"/>
<stop offset="0.128" stop-color="#3771C8"/>
<stop offset="1" stop-color="#6600FF" stop-opacity="0"/>
</radialGradient>
<clipPath id="clip0_21_4162">
<rect width="48" height="48" fill="white"/>
</clipPath>
</defs>
</svg>
