<svg width="1512" height="982" viewBox="0 0 1512 982" fill="none" xmlns="http://www.w3.org/2000/svg">
<g clip-path="url(#clip0_228_348)">
<rect width="1512" height="982" fill="white"/>
<path fill-rule="evenodd" clip-rule="evenodd" d="M1403.07 -247.068C1500.46 -238.434 1534.92 -118.177 1605.97 -51.0151C1681.17 20.075 1810.17 49.4757 1825.11 151.878C1840.65 258.419 1763.58 362.476 1675.27 424.071C1597.65 478.208 1494.7 469.913 1403.07 446.243C1332.96 428.129 1291.13 366.099 1242.64 312.308C1198.17 262.97 1150.97 216.97 1137.73 151.878C1120.91 69.2088 1113.99 -20.2463 1160.71 -90.4906C1216.08 -173.745 1303.48 -255.898 1403.07 -247.068Z" fill="url(#paint0_linear_228_348)"/>
<path fill-rule="evenodd" clip-rule="evenodd" d="M1517.53 688.761C1555.97 691.266 1600.61 635.503 1627.76 662.854C1658.09 693.418 1614.25 746.037 1617.05 789.027C1618.54 811.845 1632.01 830.771 1640.1 852.154C1657.28 897.533 1708.93 940.03 1691.34 985.248C1675.98 1024.72 1613.12 1010.18 1573.17 1024.18C1530.42 1039.16 1492.69 1079.51 1448.32 1070.42C1403.83 1061.31 1372.4 1018.94 1351.25 978.719C1332.4 942.859 1321.79 897.558 1337.87 860.369C1353.23 824.858 1420.28 832.103 1430.76 794.857C1444.65 745.51 1365.23 687.528 1397.67 647.856C1424.96 614.488 1474.54 685.958 1517.53 688.761Z" fill="url(#paint1_linear_228_348)"/>
<path fill-rule="evenodd" clip-rule="evenodd" d="M689.647 594.746C713.783 589.868 736.706 609.899 752.222 626.037C765.703 640.061 764.792 659.345 768.725 677.002C771.712 690.409 771.522 703.345 772.476 716.957C773.707 734.544 780.096 751.56 775.145 768.688C767.627 794.696 763.062 825.154 736.754 840.531C709.718 856.334 669.913 859.379 640.02 847.67C610.497 836.105 604.943 803.843 586.264 781.582C569.996 762.196 540.123 748.8 537.315 725.272C534.518 701.834 550.697 677.837 572.036 662.361C591.015 648.596 623.259 659.824 643.972 647.916C665.958 635.276 663.677 599.995 689.647 594.746Z" fill="url(#paint2_linear_228_348)" fill-opacity="0.9"/>
<path fill-rule="evenodd" clip-rule="evenodd" d="M24.9391 142.89C85.076 174.978 25.1789 275.73 83.5124 310.021C137.322 341.653 220.094 261.619 276.095 290.531C320.441 313.426 321.725 382.17 290.835 417.057C256.408 455.94 177.734 434.775 127.176 458.722C99.9558 471.615 94.5982 501.654 72.8138 520.324C31.5796 555.664 -8.16441 644.455 -57.1332 616.683C-115.169 583.768 -51.0073 503.424 -58.971 445.583C-61.4052 427.903 -81.2584 415.876 -87.1378 398.76C-93.7832 379.413 -92.2259 359.982 -95.2294 340.023C-102.235 293.47 -142.09 245.156 -116.556 203.269C-92.1648 163.255 -20.5812 118.602 24.9391 142.89Z" fill="url(#paint3_linear_228_348)"/>
<path fill-rule="evenodd" clip-rule="evenodd" d="M86.2493 687.543C132.154 682.234 177.623 716.802 198.992 750.846C218.961 782.659 176.161 822.704 192.029 856.062C206.424 886.323 267.374 887.908 278.973 918.981C290.87 950.85 286.916 998.996 251.086 1014.26C209.826 1031.85 164.544 992.879 118.626 987.311C96.4486 984.621 74.9224 987.047 52.8389 990.224C6.75941 996.851 -45.6317 1041.31 -81.0472 1016.03C-113.815 992.635 -47.9339 948.18 -55.4559 912.909C-63.4201 875.565 -136.099 853.216 -123.547 816.746C-111.778 782.551 -42.3774 796 -7.91312 774.775C30.6638 751.017 38.6277 693.05 86.2493 687.543Z" fill="url(#paint4_linear_228_348)" fill-opacity="0.9"/>
</g>
<defs>
<linearGradient id="paint0_linear_228_348" x1="1125" y1="-247.722" x2="1837.22" y2="454.319" gradientUnits="userSpaceOnUse">
<stop stop-color="#FFF6B7"/>
<stop offset="1" stop-color="#F6416C"/>
</linearGradient>
<linearGradient id="paint1_linear_228_348" x1="1330" y1="639" x2="1756.53" y2="998.704" gradientUnits="userSpaceOnUse">
<stop stop-color="#FFA8A8"/>
<stop offset="1" stop-color="#FCFF00"/>
</linearGradient>
<linearGradient id="paint2_linear_228_348" x1="537" y1="594" x2="796.874" y2="833.176" gradientUnits="userSpaceOnUse">
<stop stop-color="#F6D242"/>
<stop offset="1" stop-color="#FF52E5"/>
</linearGradient>
<linearGradient id="paint3_linear_228_348" x1="-125" y1="136" x2="358.249" y2="570.546" gradientUnits="userSpaceOnUse">
<stop stop-color="#3C8CE7"/>
<stop offset="1" stop-color="#00EAFF"/>
</linearGradient>
<linearGradient id="paint4_linear_228_348" x1="-125" y1="687" x2="205.314" y2="1089.18" gradientUnits="userSpaceOnUse">
<stop stop-color="#EE9AE5"/>
<stop offset="1" stop-color="#5961F9"/>
</linearGradient>
<clipPath id="clip0_228_348">
<rect width="1512" height="982" fill="white"/>
</clipPath>
</defs>
</svg>
