<svg width="1512" height="426" viewBox="0 0 1512 426" fill="none" xmlns="http://www.w3.org/2000/svg">
<path d="M0 0L50.4 21.5C104.5 40.2253 217.9 69.6613 302.4 83.5C386.9 97.3387 467.262 102.792 570.5 83.5C666.609 65.5401 709 17.5 804.5 17.5C909.5 17.5 892 19.1452 1026.5 62.7581C1152 103.453 1129.5 23.3387 1223 23.3387C1354.5 23.3387 1461.6 98.5384 1512 46.6429V425.5H1461.6C1411.2 425.5 1310.4 425.5 1209.6 425.5C1108.8 425.5 1008 425.5 907.2 425.5C806.4 425.5 705.6 425.5 604.8 425.5C504 425.5 403.2 425.5 302.4 425.5C201.6 425.5 100.8 425.5 50.4 425.5H0V0Z" fill="#EAF7FF"/>
</svg>
